http://kickass.to/ishq-1997-dvdrip-x264-e-subs-axn-team-dhrz-t4815532.html
HTTP/1.1 200 OK
Server: nginx/1.5.13
Date: Wed, 23 Jul 2014 02:08:30 GMT
Content-Type: text/html; charset=UTF-8
Connection: close
X-Powered-By: PHP/5.5.13-pl0-gentoo
Set-Cookie: lang_detected=en; expires=Thu, 23-Jul-2015 02:13:11 GMT; Max-Age=31536000; path=/; domain=.kickass.to
Set-Cookie: lang_code=en; expires=Thu, 23-Jul-2015 02:13:11 GMT; Max-Age=31536000; path=/; domain=.kickass.to
Cache-Control: public
Content-Encoding: gzip
Set-Cookie: country_code=US; Path=/;

<!DOCTYPE html>
<html xmlns="http://www.w3.org/1999/xhtml" dir="ltr">
<head>
    <meta http-equiv="Content-Type" content="text/html; charset=utf-8"/>
    <meta http-equiv="Content-Style-Type" content="text/css"/>
    <meta name="description" content="Download Ishq (1997) DvDRip x264 E Subs - AxN - Team DhRz torrent or any other torrent from Other Movies category. Direct download via HTTP available as well."/>
    <title>Download Ishq (1997) DvDRip x264 E Subs - AxN - Team DhRz Torrent - KickassTorrents</title>
    <link rel="stylesheet" type="text/css" href="//kastatic.com/all-e4d9fd3.css" charset="utf-8" />
    <link rel="shortcut icon" href="//kastatic.com/images/favicon.ico" />
    

    <link rel="apple-touch-icon" href="//kastatic.com/images/apple-touch-icon.png" />

    <!--[if lt IE 7]>
    <link href="//kastatic.com/css/ie6-e4d9fd3.css" rel="stylesheet" type="text/css"/>
    <![endif]-->

    <!--[if IE 7]>
    <link href="//kastatic.com/css/ie7-e4d9fd3.css" rel="stylesheet" type="text/css"/>
    <![endif]-->

    <!--[if IE 8]>
    <link href="//kastatic.com/css/ie8.css" rel="stylesheet" type="text/css"/>
    <![endif]-->

    <!--[if lt IE 9]>
    <script src="//kastatic.com/js/html5.min-e4d9fd3.js" type="text/javascript"></script>
    <![endif]-->

    <!--[if gte IE 9]>
    <link href="//kastatic.com/css/ie9-e4d9fd3.css" rel="stylesheet" type="text/css"/>
    <![endif]-->
    <script>
        var kat = {
            release_id: 'e4d9fd3',
            detect_lang: 0,
            spare_click: 1        };
    </script>
    <script src="//kastatic.com/js/all-e4d9fd3.js" type="text/javascript"></script>
    <link rel="alternate" type="application/rss+xml" title="Subscribe to RSS feed" href="/?rss=1"/>
        <meta name="verify-v1" content="YccN/iP28SifHNEFY6u92i0ou3tAegQAIk2OyOJLp1s="/>
    <meta name="y_key" content="f0b40c3f5fee758f"/>
    <meta name="google-site-verification" content="C1rNEC4fJIvFoyyccMV2PbuqX3P-SFtlD2MNZ9D2uy0" />
    <link rel="search" type="application/opensearchdescription+xml" title="KickassTorrents Torrent Search" href="/opensearch.xml"/>
    <meta property="fb:app_id" content="123694587642603"/>
    <meta name="apple-mobile-web-app-capable" content="yes" />
    <meta name="apple-mobile-web-app-status-bar-style" content="black-translucent" />
    <script type="text/javascript">var _scq = _scq || [];</script></head>
<body>
<div id="wrapper">
    <div id="wrapperInner">
<div id="_60318cd4e8d28f6fb76fe34e9bd9c498"></div>
<div id="_39ecb76dd457e5ac33776fdf11500d56"></div>
<div id="changeIE6">
    <p>&nbsp;</p>
    <div class="browserIcons">
        <a href="http://www.getfirefox.com/" target="_blank" rel="external" class="browsersIconsFirefox"></a>
        <a href="http://www.apple.com/safari/" target="_blank" rel="external" class="browsersIconsSafari"></a>
        <a href="http://www.google.com/chrome/" target="_blank" rel="external" class="browsersIconsChrome"></a>
        <a href="http://www.opera.com/" target="_blank" rel="external" class="browsersIconsOpera"></a>
    </div><!-- div class="alternativeBrowsersIcons" -->
</div><!-- div class="changeIE6" -->
<div id="logindiv"></div>
<header>
    <div class="headmenu">
        <form name="logoutform" action="/auth/logout/" method="post" style="display:none"><input type="hidden" name="csrf_token" value="a816842ed2ebc556912f26f5cd69c1d2"/></form>
        <ul>
            <li id="loginbut" class="last"><a href="//kickass.to/auth/login/" class="ajaxLink">login / register</a></li>
            <li><a href="/community/">Community</a></li>
            <li><a href="/blog/">blog</a></li>
            <li><a href="/faq/">FAQ</a></li>
            <li><a href="/browse/">Browse</a></li>
            <li><a href="/new/">latest</a></li>
        </ul>
    </div>
    <div class="headmainpart">
        <div class="iebigbox">
            <a class="logo" href="/"></a>
            
            <form action="/usearch/" method="get" id="searchform" accept-charset="utf-8" onsubmit="return doSearch(this.q.value);">
                <div class="toppad10px floatright">
                    <button type="submit" class="siteButton searchButton" value="" onfocus="this.blur();" onclick="this.blur();"><span>Search</span></button>
                    <div class="searchGroup">
                        <div class="search">
                            <input id="search_box" type="text" name="q" value="" autocomplete="off" placeholder="Search query" />
                        </div>
                        <a href="/advanced/" class="advancedSearchLink ajaxLink">Advanced search&nbsp;</a>
                    </div>
                </div>
            </form>
        </div>
    </div>
</header>

<div class="mainpart">
    
 
<script type="text/javascript" charset="utf-8">
$(function() {
    $('#desc img').each(function() {
        if ($(this).attr('width') > '620')  {
            $(this).attr('width','620');
        }
        $(this).removeAttr('height');
    });
});
</script> 
<table cellspacing="0" cellpadding="0" class="doublecelltable width100perc" id="mainDetailsTable">
	<tr>
		<td width="100%" itemscope itemtype="http://schema.org/Product">
        					<div class="goodFake" itemscope itemtype="http://schema.org/AggregateRating">
    <meta itemprop="ratingValue" content="10" />
    <meta itemprop="bestRating" content="10" />
    <meta itemprop="ratingCount" content="57" />

    <div class="floatLeft inlineblock">
        <a title="Good" id="thnxLink" data-hash="7fdd33356e7cb52631ff02a04dc657e62799376a" class="ajaxLink" href="/auth/login/">
            <span class="block relative"><span class="thnx"></span><span class="siteButton torrentfingers"></span></span>
            <span class="siteButton smallButton" id="thnxCount"><span>+56</span></span>
        </a>
            </div>
    <div class="floatRight inlineblock">
        <a title="Bad" id="fakeLink" data-hash="7fdd33356e7cb52631ff02a04dc657e62799376a" class="ajaxLink" href="/auth/login/">
            <span class="block relative"><span class="fake"></span><span class="siteButton redButton torrentfingers"></span></span>
            <span class="siteButton smallButton redButton" id="fakeCount"><span>-1</span></span>
        </a>
            </div>

            <br /><a id="report_button" href="/auth/login/" class="ireport icon16 textButton redButton ajaxLink center" style="min-width: 108px; float: left"><span></span>report fake</a>
    </div>
					<h1 class="novertmarg"><a href="/ishq-1997-dvdrip-x264-e-subs-axn-team-dhrz-t4815532.html"><span itemprop="name">Ishq (1997) DvDRip x264 E Subs - AxN - Team DhRz</span></a></h1>
					<div class="seedLeachContainer">
				<div class="seedBlock"><span class="seedLeachIcon"></span>seeders: <strong itemprop="seeders">13</strong></div>
				<div class="leechBlock"><span class="seedLeachIcon"></span>leechers: <strong itemprop="leechers">10</strong></div>
			</div>
			<div class="buttonsline downloadButtonGroup clearleft novertpad">
            <a title="Add torrent to personal RSS" href="/bookmarks/add/rss/7fdd33356e7cb52631ff02a04dc657e62799376a/" class="siteButton giantIcon rssButton ajaxLink"><span></span>
    </a>
    
        <a href="/bookmarks/add/torrent/7fdd33356e7cb52631ff02a04dc657e62799376a/" class="siteButton giantIcon bookmarkButton ajaxLink" title="Add to bookmarks">
        <span>
        </span>
    </a>
    
    <a title="Magnet link" href="magnet:?xt=urn:btih:7fdd33356e7cb52631ff02a04dc657e62799376a&dn=ishq+1997+dvdrip+x264+e+subs+axn+team+dhrz&tr=udp%3A%2F%2Ftracker.publicbt.com%3A80%2Fannounce&tr=udp%3A%2F%2Fopen.demonii.com%3A1337" class="siteButton giantIcon magnetlinkButton">
        <span>
        </span>
    </a>

    <a rel="nofollow" title="Download verified torrent file" href="http://torcache.net/torrent/7FDD33356E7CB52631FF02A04DC657E62799376A.torrent?title=[kickass.to]ishq.1997.dvdrip.x264.e.subs.axn.team.dhrz" class="siteButton giantButton    verifTorrentButton"><span><em class="buttonPic"></em>
            Download torrent</span>
    </a>
            <div id="_74537daaf40605219cf5abec7e57e932"></div></div>
                            <div id="_ad4d917f2e764fab63b916b5e0655d2e" class="block botmarg5px"></div>
                <div id="_151f50b61bb9a7633562d3f308691182"></div>
            					<div class="font11px lightgrey line160perc">
Added on Dec 13, 2010 in <span id="cat_4815532"><strong><a href="/movies/">Movies</a></strong></span>	 <br>
	Torrent verified.	Downloaded 243 times.
</div>
        
            <div class="tabs tabSwitcher">
				<ul class="tabNavigation">
					<li><a href="#main" rel="main" class="darkButton"><span>Main</span></a></li>
                                        <li><a href="#technical" rel="technical" class="darkButton"><span>Technical</span></a></li>
                                                            <li class="hideInOpera"><a href="#trailer" id="trailer_link" rel="trailer" class="darkButton"><span>Trailer</span></a></li>
                                                            <li><a href="#comment" rel="comment" class="darkButton"><span>Comments <i class="menuValue">20</i></span></a></li>
				</ul>
				<hr class="tabsSeparator" />
                <div id="tab-main" class="contentTabContainer">
                 
                    <div class="advertBanner" id="_2bffc94164dd9984ae4826e8bc988721"></div>
                    <script type="text/javascript">
                    _scq.push(['addSlot', '_2bffc94164dd9984ae4826e8bc988721', {
                        tname_encoded: 'Ishq+%281997%29+DvDRip+x264+E+Subs+-+AxN+-+Team+DhRz',
                        tname: 'Ishq (1997) DvDRip x264 E Subs - AxN - Team DhRz',
                        tfile: 'http%3A%2F%2Ftorcache.net%2Ftorrent%2F7FDD33356E7CB52631FF02A04DC657E62799376A.torrent%3Ftitle%3D%5Bkickass.to%5Dishq.1997.dvdrip.x264.e.subs.axn.team.dhrz',
                        tmagnet: 'magnet%3A%3Fxt%3Durn%3Abtih%3A7fdd33356e7cb52631ff02a04dc657e62799376a%26dn%3Dishq%2B1997%2Bdvdrip%2Bx264%2Be%2Bsubs%2Baxn%2Bteam%2Bdhrz%26tr%3Dudp%253A%252F%252Ftracker.publicbt.com%253A80%252Fannounce%26tr%3Dudp%253A%252F%252Fopen.demonii.com%253A1337',
                        category: 'Movies',
                        hash: '7fdd33356e7cb52631ff02a04dc657e62799376a'
                    }]);
                    </script>
                                                    
                                    									<div class="torrentMediaInfo" id="movieinfo"><a class="movieCover" href="/ishq-i0133024/"><img src="//yuq.me/movies/13/302/0133024_big.jpg" /></a>
    <div class="dataList">
        <ul class="block overauto botmarg0">
            <li><strong>Movie:</strong> <a href="/ishq-i0133024/"><span>Ishq</span></a></li>
            <li><strong>IMDB link:</strong> <a class="plain" href="http://anonym.to/?http://www.imdb.com/title/tt0133024/">0133024</a></li>
                        <li><strong>Detected quality:</strong> <span id="quality_4815532">DVDRip</span></li>
                                    <li><strong>IMDB rating:</strong> 6.7 (1,194 votes) </li>
                                                <li><strong>Genres:</strong>  <a class="plain" href="/movies/genre/action/"><span>Action</span></a>,  <a class="plain" href="/movies/genre/drama/"><span>Drama</span></a>,  <a class="plain" href="/movies/genre/romance/"><span>Romance</span></a>,  <a class="plain" href="/movies/genre/comedy/"><span>Comedy</span></a>,  <a class="plain" href="/movies/genre/musical/"><span>Musical</span></a> </li>
                    </ul>
        <ul>
                    <li><a href="/bookmarks/add/movie/0133024/" class="ajaxLink icon16 textButton iplus"><span></span>add <strong>Ishq</strong> to bookmarks</a></li>
                                <li><strong>Release date:</strong> 28 November 1997</li>
                        	<li><strong>Language:</strong>
				<span id="lang_4815532_6">Hindi
		</span>
							</li>
<li><strong>Subtitles:</strong>
    	<span id="sub_4815532_2">English</span>    		</li>

        </ul>
                <div class="floatleft width100perc botmarg10px"><strong>Cast:</strong>  <span><a href="/movies/actor/kajol-a0004418/">Kajol</a></span>,              <span><a href="/movies/actor/juhi-chawla-a0004487/">Juhi Chawla</a></span>,              <span><a href="/movies/actor/sadashiv-amrapurkar-a0025389/">Sadashiv Amrapurkar</a></span>,              <span><a href="/movies/actor/ajay-devgan-a0222426/">Ajay Devgan</a></span>,              <span><a href="/movies/actor/brij-gopal-a0329702/">Brij Gopal</a></span>,              <span><a href="/movies/actor/sanjay-goradia-a0329749/">Sanjay Goradia</a></span>,              <span><a href="/movies/actor/gulshan-a0347862/">Gulshan</a></span>,              <span><a href="/movies/actor/mohan-joshi-a0430803/">Mohan Joshi</a></span>,              <span><a href="/movies/actor/aamir-khan-a0451148/">Aamir Khan</a></span>,              <span><a href="/movies/actor/razak-khan-a0451299/">Razak Khan</a></span> and others             </div>
                        <div class="pages marg0 floatleft"> <strong class="botpad5px block">Available in versions:</strong> <a class="turnoverButton siteButton bigButton  active" href="/ishq-i0133024/#DVDRip">DVDRip</a> </div>
            </div>
    <!-- div class="dataList" --> 
</div>

									<div class="torrent_files">	<span class="folderopen"><span class="foldericon"></span><a href="#" onclick="Toggle('ul_top', this);return false;" title="Ishq (1997) DvDRip x264 E Subs - AxN - Team DhRz" class="dotted">Ishq (1997) DvDRip x264 E Subs - AxN - Team DhRz</a> (Size: 893.5 <span>MB</span>)</span>
	<div id="torrent_files">
			<table id="ul_top" class="torrentFileList" cellpadding="0" cellspacing="0" width="100%" >
																					<tr >
			<td class="torTree">&nbsp;</td>
			<td class="torFileIcon"><span class="torType filmType"></span></td>
			<td class="torFileName" title="Ishq (1997) DvDRip x264 E Subs - AxN - Team DhRz.mp4">Ishq (1997) DvDRip x264 E Subs - AxN - Team DhRz.mp4</td>
			<td class="torFileSize">893.38 <span>MB</span></td>
		</tr>
							<tr  class="last">
			<td class="torTree">&nbsp;</td>
			<td class="torFileIcon"><span class="torType txtType"></span></td>
			<td class="torFileName" title="Ishq (1997) DvDRip x264 E Subs - AxN - Team DhRz.srt">Ishq (1997) DvDRip x264 E Subs - AxN - Team DhRz.srt</td>
			<td class="torFileSize">122.91 <span>KB</span></td>
		</tr>
				
					</table>
		</div>
</div>
                					<div class="data">
                        										<h2>Description</h2>
						<div class="textcontent" id="desc">
							<div class="center"><img class="lazyjs bbcodeImage" src="//kastatic.com/images/blank.gif" data-original="http://i.imgur.com/KHedpkP.jpg" alt="image" /></div><br />
<b>Storyline:</b><br />
Harbans Rai and Ranjit Rai are two wealthy businessmen who absolutely *loathe* poverty and poor people. As fate would have it , Harbans Rai's daughter Madhu falls for a poor mechanic Raja while Ranjit Rai's son Ajay romances a poor girl Kajal. When Harbans and Ranjit come to know of it they try various ways to separate the lovers. <br />
<br />
<div class="center">161 min - Action | Comedy | Drama | Musical | Romance</div><br />
<br />
Ratings: 6.9/10 from 4,342 users<br />
Directors: Indra Kumar<br />
Writers: Rajeev Kaul, Rajeev Kaul<br />
Stars: Aamir Khan, Ajay Devgn, Juhi Chawla<br />
Language: Hindi<br />
Country: India<br />
<br />
<div class="center"><img class="lazyjs bbcodeImage" src="//kastatic.com/images/blank.gif" data-original="http://i.imgur.com/J5PWzEK.jpg" alt="image" /><br />
<br />
<img class="lazyjs bbcodeImage" src="//kastatic.com/images/blank.gif" data-original="http://i.imgur.com/Y2xPoBh.jpg" alt="image" /><br />
<br />
<img class="lazyjs bbcodeImage" src="//kastatic.com/images/blank.gif" data-original="http://i.imgur.com/NXU0ILw.jpg" alt="image" /><br />
<br />
<img class="lazyjs bbcodeImage" src="//kastatic.com/images/blank.gif" data-original="http://i.imgur.com/vFHj8Lw.jpg" alt="image" /></div><br />
<b><br />
Media Information:</b><br />
Complete name : Ishq (1997) DvDRip x264 E Subs - AxN - Team DhRz<br />
Format : MPEG-4<br />
Format profile : Base Media<br />
Codec ID : isom<br />
File size : 893 MiB<br />
Duration : 2h 49mn<br />
Overall bit rate mode : Variable<br />
Overall bit rate : 737 Kbps<br />
<br />
Video<br />
ID : 1<br />
Format : AVC<br />
Format/Info : Advanced Video Codec<br />
Format profile : High@L2.1<br />
Format settings, CABAC : Yes<br />
Format settings, ReFrames : 4 frames<br />
Codec ID : avc1<br />
Codec ID/Info : Advanced Video Coding<br />
Duration : 2h 49mn<br />
Bit rate : 638 Kbps<br />
Maximum bit rate : 2 797 Kbps<br />
Width : 640 pixels<br />
Height : 304 pixels<br />
Display aspect ratio : 2.105<br />
Frame rate mode : Constant<br />
Frame rate : 23.976 fps<br />
Color space : YUV<br />
Chroma subsampling : 4:2:0<br />
Bit depth : 8 bits<br />
Scan type : Progressive<br />
Bits/(Pixel*Frame) : 0.137<br />
Stream size : 773 MiB (87%)<br />
Title : Imported with GPAC 0.4.6-DEV (internal rev. 5)<br />
Writing library : x264 core 98 r1649 c54c47d<br />
<br />
Audio<br />
ID : 2<br />
Format : AAC<br />
Format/Info : Advanced Audio Codec<br />
Format profile : HE-AAC / LC<br />
Codec ID : 40<br />
Duration : 2h 49mn<br />
Bit rate mode : Variable<br />
Bit rate : 96.0 Kbps<br />
Maximum bit rate : 109 Kbps<br />
Channel(s) : 2 channels<br />
Channel(s)_Original : 6 channels<br />
Channel positions : Front: L C R, Side: L R, LFE<br />
Sampling rate : 48.0 KHz / 24.0 KHz<br />
Compression mode : Lossy<br />
Stream size : 116 MiB (13%)
						</div>
									</div>
										            	<h2>Related Torrents</h2>


	<table cellpadding="0" cellspacing="0" class="data" style="width: 100%">
		<tr class="firstr">
			<th class="width100perc nopad">torrent name</th>
			<th class="center">size</th>
			<th class="center">files</th>
			<th class="center">age</th>
			<th class="center">seed</th>
			<th class="lasttd nobr center">leech</th>
</tr>
						<tr class="odd" id="torrent_related_torrents7842561"> 
            <td>
            <div class="iaconbox floatright">
                <a rel="7842561,0" class="icomment icommentjs icon16" href="/revenge-s02e19-french-ld-dvdrip-x264-epz-t7842561.html#comment"><em class="iconvalue">7</em><span></span></a>				<a class="iverify icon16" href="/revenge-s02e19-french-ld-dvdrip-x264-epz-t7842561.html" title="Verified Torrent"><span></span></a>                                <a href="#" onclick="_scq.push(['redirect', '_75f5dc494eac0e0e2d252ce8c434bef6', { 'name': 'Revenge%20S02E19%20FRENCH%20LD%20DVDRiP%20x264-EPZ', 'magnet': 'magnet%3A%3Fxt%3Durn%3Abtih%3AFBFDB71A5AA8603D0A277328CE97015B2375A07F%26dn%3Drevenge%2Bs02e19%2Bfrench%2Bld%2Bdvdrip%2Bx264%2Bepz%26tr%3Dudp%253A%252F%252Ffr33domtracker.h33t.com%253A3310%252Fannounce%26tr%3Dudp%253A%252F%252Fopen.demonii.com%253A1337' }]); return false;" class="partner1Button idownload icon16"><span></span></a>
                
                <a title="Torrent magnet link" href="magnet:?xt=urn:btih:FBFDB71A5AA8603D0A277328CE97015B2375A07F&dn=revenge+s02e19+french+ld+dvdrip+x264+epz&tr=udp%3A%2F%2Ffr33domtracker.h33t.com%3A3310%2Fannounce&tr=udp%3A%2F%2Fopen.demonii.com%3A1337" class="imagnet icon16"><span></span></a>
                <a title="Download torrent file" href="http://torcache.net/torrent/FBFDB71A5AA8603D0A277328CE97015B2375A07F.torrent?title=[kickass.to]revenge.s02e19.french.ld.dvdrip.x264.epz" class="idownload icon16"><span></span></a>
            </div>
            <div class="torrentname">
                <a href="/revenge-s02e19-french-ld-dvdrip-x264-epz-t7842561.html" class="torType filmType"></a>
                <a href="/revenge-s02e19-french-ld-dvdrip-x264-epz-t7842561.html" class="normalgrey font12px plain bold"></a>
            <div class="markeredBlock torType filmType">

                <a href="/revenge-s02e19-french-ld-dvdrip-x264-epz-t7842561.html" class="cellMainLink">Revenge S02E19 FRENCH LD DVDRiP x264-EPZ</a>

                                                <span class="font11px lightgrey block">
                                Posted by <a class="plain" href="/user/Alex_Kid/">Alex_Kid</a>&nbsp;<img src="//kastatic.com/images/verifup.png" alt="verified"/>  in <span id="cat_7842561"><strong><a href="/tv/">TV</a></strong></span>                	                </span>
            	            </div>
            </td>
									<td class="nobr center">254.31 <span>MB</span></td>
			<td class="center">1</td>
			<td class="center">10&nbsp;months</td>
			<td class="green center">1368</td>
			<td class="red lasttd center">595</td>
			</tr>
						<tr class="even" id="torrent_related_torrents7668510"> 
            <td>
            <div class="iaconbox floatright">
                <a rel="7668510,0" class="icomment icommentjs icon16" href="/derive-mortelle-french-dvdrip-xvid-notag-t7668510.html#comment"><em class="iconvalue">3</em><span></span></a>				<a class="iverify icon16" href="/derive-mortelle-french-dvdrip-xvid-notag-t7668510.html" title="Verified Torrent"><span></span></a>                                <a href="#" onclick="_scq.push(['redirect', '_75f5dc494eac0e0e2d252ce8c434bef6', { 'name': 'Derive%20Mortelle.French.DVDRIP.Xvid.Notag', 'magnet': 'magnet%3A%3Fxt%3Durn%3Abtih%3A0BF8B57CC78B4628E6AA81D67330F79471AE2F01%26dn%3Dderive%2Bmortelle%2Bfrench%2Bdvdrip%2Bxvid%2Bnotag%26tr%3Dudp%253A%252F%252Ffr33domtracker.h33t.com%253A3310%252Fannounce%26tr%3Dudp%253A%252F%252Fopen.demonii.com%253A1337' }]); return false;" class="partner1Button idownload icon16"><span></span></a>
                
                <a title="Torrent magnet link" href="magnet:?xt=urn:btih:0BF8B57CC78B4628E6AA81D67330F79471AE2F01&dn=derive+mortelle+french+dvdrip+xvid+notag&tr=udp%3A%2F%2Ffr33domtracker.h33t.com%3A3310%2Fannounce&tr=udp%3A%2F%2Fopen.demonii.com%3A1337" class="imagnet icon16"><span></span></a>
                <a title="Download torrent file" href="http://torcache.net/torrent/0BF8B57CC78B4628E6AA81D67330F79471AE2F01.torrent?title=[kickass.to]derive.mortelle.french.dvdrip.xvid.notag" class="idownload icon16"><span></span></a>
            </div>
            <div class="torrentname">
                <a href="/derive-mortelle-french-dvdrip-xvid-notag-t7668510.html" class="torType filmType"></a>
                <a href="/derive-mortelle-french-dvdrip-xvid-notag-t7668510.html" class="normalgrey font12px plain bold"></a>
            <div class="markeredBlock torType filmType">

                <a href="/derive-mortelle-french-dvdrip-xvid-notag-t7668510.html" class="cellMainLink">Derive Mortelle.French.DVDRIP.Xvid.Notag</a>

                                                <span class="font11px lightgrey block">
                                Posted by <a class="plain" href="/user/bizonar/">bizonar</a>&nbsp;<img src="//kastatic.com/images/verifup.png" alt="verified"/>  in <span id="cat_7668510"><strong><a href="/movies/">Movies</a> > <a href="/dubbed-movies/">Dubbed Movies</a></strong></span>                	                </span>
            	            </div>
            </td>
									<td class="nobr center">701.14 <span>MB</span></td>
			<td class="center">1</td>
			<td class="center">11&nbsp;months</td>
			<td class="green center">1337</td>
			<td class="red lasttd center">623</td>
			</tr>
						<tr class="odd" id="torrent_related_torrents9320940"> 
            <td>
            <div class="iaconbox floatright">
                <a rel="9320940,0" class="icomment icommentjs icon16" href="/the-hottest-new-girls-new-2014-digital-sin-dvdrip-t9320940.html#comment"><em class="iconvalue">4</em><span></span></a>				<a class="iverify icon16" href="/the-hottest-new-girls-new-2014-digital-sin-dvdrip-t9320940.html" title="Verified Torrent"><span></span></a>                                <a href="#" onclick="_scq.push(['redirect', '_75f5dc494eac0e0e2d252ce8c434bef6', { 'name': 'The%20Hottest%20New%20Girls%20%28NEW%202014%20Digital%20Sin%29%20%5BDVDRip%5D', 'magnet': 'magnet%3A%3Fxt%3Durn%3Abtih%3A44DD73E3016ADBA6DF2230846C0D5A526D819F29%26dn%3Dthe%2Bhottest%2Bnew%2Bgirls%2Bnew%2B2014%2Bdigital%2Bsin%2Bdvdrip%26tr%3Dhttp%253A%252F%252Ftracker.trackerfix.com%252Fannounce%26tr%3Dudp%253A%252F%252Fopen.demonii.com%253A1337' }]); return false;" class="partner1Button idownload icon16"><span></span></a>
                
                <a title="Torrent magnet link" href="magnet:?xt=urn:btih:44DD73E3016ADBA6DF2230846C0D5A526D819F29&dn=the+hottest+new+girls+new+2014+digital+sin+dvdrip&tr=http%3A%2F%2Ftracker.trackerfix.com%2Fannounce&tr=udp%3A%2F%2Fopen.demonii.com%3A1337" class="imagnet icon16"><span></span></a>
                <a title="Download torrent file" href="http://torcache.net/torrent/44DD73E3016ADBA6DF2230846C0D5A526D819F29.torrent?title=[kickass.to]the.hottest.new.girls.new.2014.digital.sin.dvdrip" class="idownload icon16"><span></span></a>
            </div>
            <div class="torrentname">
                <a href="/the-hottest-new-girls-new-2014-digital-sin-dvdrip-t9320940.html" class="torType filmType"></a>
                <a href="/the-hottest-new-girls-new-2014-digital-sin-dvdrip-t9320940.html" class="normalgrey font12px plain bold"></a>
            <div class="markeredBlock torType filmType">

                <a href="/the-hottest-new-girls-new-2014-digital-sin-dvdrip-t9320940.html" class="cellMainLink">The Hottest New Girls (NEW 2014 Digital Sin) [DVDRip]</a>

                                                <span class="font11px lightgrey block">
                                Posted by <a class="plain" href="/user/chkm8te/">chkm8te</a>&nbsp;<img src="//kastatic.com/images/verifup.png" alt="verified"/>  in <span id="cat_9320940"><strong><a href="/xxx/">XXX</a> > <a href="/xxx-video/">Video</a></strong></span>                	                </span>
            	            </div>
            </td>
									<td class="nobr center">3.45 <span>GB</span></td>
			<td class="center">1</td>
			<td class="center">1&nbsp;week</td>
			<td class="green center">1190</td>
			<td class="red lasttd center">873</td>
			</tr>
						<tr class="even" id="torrent_related_torrents7722615"> 
            <td>
            <div class="iaconbox floatright">
                <a rel="7722615,0" class="icomment icommentjs icon16" href="/pain-and-gain-2013-dvdrip-xvid-maxspeed-t7722615.html#comment"><em class="iconvalue">316</em><span></span></a>				<a class="iverify icon16" href="/pain-and-gain-2013-dvdrip-xvid-maxspeed-t7722615.html" title="Verified Torrent"><span></span></a>                                <a href="#" onclick="_scq.push(['redirect', '_75f5dc494eac0e0e2d252ce8c434bef6', { 'name': 'Pain%20and%20Gain%20%282013%29%20DVDRip%20XviD-MAXSPEED', 'magnet': 'magnet%3A%3Fxt%3Durn%3Abtih%3AB6E4BB557B7F6B1961F397A2F30565591573E868%26dn%3Dpain%2Band%2Bgain%2B2013%2Bdvdrip%2Bxvid%2Bmaxspeed%26tr%3Dudp%253A%252F%252Fopen.demonii.com%253A1337%252Fannounce' }]); return false;" class="partner1Button idownload icon16"><span></span></a>
                
                <a title="Torrent magnet link" href="magnet:?xt=urn:btih:B6E4BB557B7F6B1961F397A2F30565591573E868&dn=pain+and+gain+2013+dvdrip+xvid+maxspeed&tr=udp%3A%2F%2Fopen.demonii.com%3A1337%2Fannounce" class="imagnet icon16"><span></span></a>
                <a title="Download torrent file" href="http://torcache.net/torrent/B6E4BB557B7F6B1961F397A2F30565591573E868.torrent?title=[kickass.to]pain.and.gain.2013.dvdrip.xvid.maxspeed" class="idownload icon16"><span></span></a>
            </div>
            <div class="torrentname">
                <a href="/pain-and-gain-2013-dvdrip-xvid-maxspeed-t7722615.html" class="torType filmType"></a>
                <a href="/pain-and-gain-2013-dvdrip-xvid-maxspeed-t7722615.html" class="normalgrey font12px plain bold"></a>
            <div class="markeredBlock torType filmType">

                <a href="/pain-and-gain-2013-dvdrip-xvid-maxspeed-t7722615.html" class="cellMainLink">Pain and Gain (2013) DVDRip XviD-MAXSPEED</a>

                                                <span class="font11px lightgrey block">
                                Posted by <a class="plain" href="/user/piratepedia/">piratepedia</a>&nbsp;<img src="//kastatic.com/images/verifup.png" alt="verified"/>  in <span id="cat_7722615"><strong><a href="/movies/">Movies</a></strong></span>                	                </span>
            	            </div>
            </td>
									<td class="nobr center">1.6 <span>GB</span></td>
			<td class="center">8</td>
			<td class="center">11&nbsp;months</td>
			<td class="green center">1439</td>
			<td class="red lasttd center">303</td>
			</tr>
						<tr class="odd" id="torrent_related_torrents7738725"> 
            <td>
            <div class="iaconbox floatright">
                <a rel="7738725,0" class="icomment icommentjs icon16" href="/wallander-32-sorgfageln-2013-swedish-dvdrip-x264-krabba-t7738725.html#comment"><em class="iconvalue">2</em><span></span></a>				<a class="iverify icon16" href="/wallander-32-sorgfageln-2013-swedish-dvdrip-x264-krabba-t7738725.html" title="Verified Torrent"><span></span></a>                                <a href="#" onclick="_scq.push(['redirect', '_75f5dc494eac0e0e2d252ce8c434bef6', { 'name': 'Wallander%2032%20Sorgfageln%202013%20SWEDiSH%20DVDRip%20x264-KraBBa', 'magnet': 'magnet%3A%3Fxt%3Durn%3Abtih%3A175C4F681DD589CDFB8EAD30C32391811FA03691%26dn%3Dwallander%2B32%2Bsorgfageln%2B2013%2Bswedish%2Bdvdrip%2Bx264%2Bkrabba%26tr%3Dudp%253A%252F%252Ftracker.istole.it%253A80%26tr%3Dudp%253A%252F%252Fopen.demonii.com%253A1337' }]); return false;" class="partner1Button idownload icon16"><span></span></a>
                
                <a title="Torrent magnet link" href="magnet:?xt=urn:btih:175C4F681DD589CDFB8EAD30C32391811FA03691&dn=wallander+32+sorgfageln+2013+swedish+dvdrip+x264+krabba&tr=udp%3A%2F%2Ftracker.istole.it%3A80&tr=udp%3A%2F%2Fopen.demonii.com%3A1337" class="imagnet icon16"><span></span></a>
                <a title="Download torrent file" href="http://torcache.net/torrent/175C4F681DD589CDFB8EAD30C32391811FA03691.torrent?title=[kickass.to]wallander.32.sorgfageln.2013.swedish.dvdrip.x264.krabba" class="idownload icon16"><span></span></a>
            </div>
            <div class="torrentname">
                <a href="/wallander-32-sorgfageln-2013-swedish-dvdrip-x264-krabba-t7738725.html" class="torType filmType"></a>
                <a href="/wallander-32-sorgfageln-2013-swedish-dvdrip-x264-krabba-t7738725.html" class="normalgrey font12px plain bold"></a>
            <div class="markeredBlock torType filmType">

                <a href="/wallander-32-sorgfageln-2013-swedish-dvdrip-x264-krabba-t7738725.html" class="cellMainLink">Wallander 32 Sorgfageln 2013 SWEDiSH DVDRip x264-KraBBa</a>

                                                <span class="font11px lightgrey block">
                                Posted by <a class="plain" href="/user/Mister.Stiffy/">Mister.Stiffy</a>&nbsp;<img src="//kastatic.com/images/verifup.png" alt="verified"/>  in <span id="cat_7738725"><strong><a href="/movies/">Movies</a></strong></span>                	                </span>
            	            </div>
            </td>
									<td class="nobr center">697.07 <span>MB</span></td>
			<td class="center">2</td>
			<td class="center">11&nbsp;months</td>
			<td class="green center">1545</td>
			<td class="red lasttd center">49</td>
			</tr>
			</table>
	
	            									<h2>Sharing Widget</h2>
<br />
<div class="sharingWidgetBox">
	<div class="sharingWidget borderrad3px floatleft">
	<a class="siteButton giantButton" href="http://torcache.net/torrent/7FDD33356E7CB52631FF02A04DC657E62799376A.torrent?title=[kickass.to]ishq.1997.dvdrip.x264.e.subs.axn.team.dhrz"><span>Download torrent</span></a>
		<div class="widgetSize"><span class="torType filmType"></span> <strong>893.5 <span>MB</span></strong></div>
		<div class="widgetSeed"><span class="seedLeachIcon"></span>seeders:<strong>13</strong></div>
		<div class="widgetLeech"><span class="seedLeachIcon"></span>leechers:<strong>10</strong></div>
	</div>
		<div class="widgetName">Ishq (1997) DvDRip x264 E Subs - AxN - Team DhRz</div>
</div><!-- div class="sharingWidgetBox" -->
<div class="floatleft">
<label class="inlineblock width50px">html</label> <input onclick="select()" value='<a href="http://kickass.to/ishq-1997-dvdrip-x264-e-subs-axn-team-dhrz-t4815532.html"><img src="//kickass.to/torrentwidget/7fdd33356e7cb52631ff02a04dc657e62799376a.png"></a>' type="text" class="textinput" /><br />
<label class="inlineblock width50px">bbcode</label> <input onclick="select()" value='[url="//kickass.to/ishq-1997-dvdrip-x264-e-subs-axn-team-dhrz-t4815532.html"][img]//kickass.to/torrentwidget/7fdd33356e7cb52631ff02a04dc657e62799376a.png[/img][/url]' type="text" class="textinput" />
</div>
								</div>
				<div id="tab-technical" class="contentTabContainer">
					<div id="trackerBox">
						<h2>Trackers
<div class="buttonsline">
	<button type="submit" class="siteButton bigButton" onclick="refreshTrackers('7fdd33356e7cb52631ff02a04dc657e62799376a');"><span>refresh</span></button>
</div>
</h2>
<div class="botmarg10px">
	<table cellpadding="0" cellspacing="0" class="data" id="trackers_table">
	<tr class="firstr">
		<th><span>tracker name</span></th>
		<th><span>Status</span></th>
		<th>checked</th>
		<th>seeders</th>
		<th>leechers</th>
		<th class="lasttd">downloads</th>
	</tr>
				<tr class="even">
		<td class="width100perc left"><div>udp://tracker.publicbt.com:80/announce</div></td>
		<td class="green">active</td>
		<td><span class="nobr">23 Jun 2014</span></td>
			<td class="green center">7</td>
		<td class="red center">4</td>
		<td class="brown lasttd center">10</td>
		</tr> 
					<tr class="odd">
		<td class="width100perc left"><div>udp://tracker.istole.it:80/announce</div></td>
		<td class="green">active</td>
		<td><span class="nobr">23 Jun 2014</span></td>
			<td class="green center">8</td>
		<td class="red center">5</td>
		<td class="brown lasttd center">10</td>
		</tr> 
					<tr class="even">
		<td class="width100perc left"><div>udp://open.demonii.com:1337/announce</div></td>
		<td class="green">active</td>
		<td><span class="nobr">23 Jun 2014</span></td>
			<td class="green center">8</td>
		<td class="red center">8</td>
		<td class="brown lasttd center">59</td>
		</tr> 
					<tr class="odd">
		<td class="width100perc left"><div>http://tracker.ex.ua/announce</div></td>
		<td class="green">active</td>
		<td><span class="nobr">23 Jun 2014</span></td>
			<td class="green center">13</td>
		<td class="red center">10</td>
		<td class="brown lasttd center">243</td>
		</tr> 
					<tr class="even">
		<td class="width100perc left"><div>udp://tracker.openbittorrent.com:80/announce</div></td>
		<td class="green">active</td>
		<td><span class="nobr">23 Jun 2014</span></td>
			<td class="green center">10</td>
		<td class="red center">7</td>
		<td class="brown lasttd center">10</td>
		</tr> 
					<tr class="odd">
		<td class="width100perc left"><div>http://genesis.1337x.org:1337/announce</div></td>
		<td class="red">outdated</td>
		<td><span class="nobr">27 Apr 2014</span></td>
			<td class="green center">-</td>
		<td class="red center">-</td>
		<td class="brown lasttd center">-</td>
		</tr> 
					<tr class="even">
		<td class="width100perc left"><div>http://bt1.the9.com:6969/announce</div></td>
		<td class="red">outdated</td>
		<td><span class="nobr">27 Apr 2014</span></td>
			<td class="green center">-</td>
		<td class="red center">-</td>
		<td class="brown lasttd center">-</td>
		</tr> 
					<tr class="odd">
		<td class="width100perc left"><div>http://11.rarbg.com/announce</div></td>
		<td class="red">private</td>
		<td><span class="nobr">27 Apr 2014</span></td>
			<td class="green center">-</td>
		<td class="red center">-</td>
		<td class="brown lasttd center">-</td>
		</tr> 
					<tr class="even">
		<td class="width100perc left"><div>udp://fr33domtracker.h33t.com:3310/announce</div></td>
		<td class="red">deleted</td>
		<td><span class="nobr">27 Apr 2014</span></td>
			<td class="green center">-</td>
		<td class="red center">-</td>
		<td class="brown lasttd center">-</td>
		</tr> 
					<tr class="odd">
		<td class="width100perc left"><div>udp://tracker.ccc.de:80/announce</div></td>
		<td class="red">deleted</td>
		<td><span class="nobr">27 Apr 2014</span></td>
			<td class="green center">-</td>
		<td class="red center">-</td>
		<td class="brown lasttd center">-</td>
		</tr> 
			</table>
	<a onclick="$('#utorrent_trackers').toggle();$('#utorrent_textarea').select();return false;">µTorrent compatible trackers list</a><br />
	<div id="utorrent_trackers" style="display:none">
	<br /><textarea class="botmarg5px" id="utorrent_textarea" rows="8">udp://tracker.publicbt.com:80/announce

udp://tracker.istole.it:80/announce

udp://open.demonii.com:1337/announce

http://tracker.ex.ua/announce

udp://tracker.openbittorrent.com:80/announce

http://genesis.1337x.org:1337/announce

http://bt1.the9.com:6969/announce

http://11.rarbg.com/announce

udp://fr33domtracker.h33t.com:3310/announce

udp://tracker.ccc.de:80/announce

udp://tracker.openbittorrent.com/announce</textarea>
	</div>
</div>
<script type="text/javascript" charset="utf-8">
    console.log('');
</script>

					</div>
		            <h2>Locations</h2>
<table cellpadding="0" cellspacing="0" class="data">
<tr class="firstr">
	<th colspan="2" class="width100perc"><span>name</span></th>
</tr>
<tr class="odd">
	<td>
		<span class="torrenticons22 thirdPartIcons"></span>
	</td>
	<td>
		<a class="plain" href="/locations/limetorrents/ishq-1997-dvdrip-x264-e-subs-axn-team-dhrz-10689161/" target="_blank" rel="external nofollow"> Limetorrents</a>
	</td>
</tr>
<tr class="even">
	<td>
		<span class="torrenticons18 thirdPartIcons"></span>
	</td>
	<td>
		<a class="plain" href="/locations/1337x/ishq-1997-dvdrip-x264-e-subs-axn-team-dhrz-10689232/" target="_blank" rel="external nofollow"> 1337x</a>
	</td>
</tr>
<tr class="odd">
	<td>
		<span class="torrenticons22 thirdPartIcons"></span>
	</td>
	<td>
		<a class="plain" href="/locations/limetorrents/ishq-1997-dvdrip-x264-e-subs-axn-team-dhrz-10689281/" target="_blank" rel="external nofollow"> Limetorrents</a>
	</td>
</tr>
<tr class="even">
	<td>
		<span class="torrenticons6 thirdPartIcons"></span>
	</td>
	<td>
		<a class="plain" href="/locations/extratorrent/ishq-1997-dvdrip-x264-e-subs-axn-team-dhrz-10690019/" target="_blank" rel="external nofollow"> ExtraTorrent</a>
	</td>
</tr>
</table>
		            <span class="lightgrey font10px">Torrent hash: 7fdd33356e7cb52631ff02a04dc657e62799376a</span>
				</div>
    			                <div id="tab-trailer" class="contentTabContainer">
                
<div class="center">
	<iframe width="640" height="480" src="//www.youtube.com/embed/V2lF4ZvJxIo" frameborder="0" allowfullscreen></iframe>
</div>
                </div>
    			    							<div id="tab-comment" class="contentTabContainer commentTab">
											<div class="commentsLeftModule">
<div class="comments topComments">
	
</div>
	<h2>All Comments<a name="comments_start"></a></h2>
	<div class="comments">
		<div class="floatleft"><div class="commentform torrentPage" id="main">

<form action="/comments/create/torrent/" method="post" onsubmit="return addComment(this, 'torrent');">
    <input type="hidden" name="turing"/>
    <input type="hidden" name="objectId" value="4815532"/>

        <textarea name="content" class="comareajs botmarg5px quicksubmit"></textarea>
                	<div class="qrateContainer">
	    <div class="qrate">
	        <span>audio</span>
	        <select name="audio_rate" id="audio_rate">
	            <option value="" class="vote">vote </option>
	            <option value="1">1 awful</option>
	            <option value="2">2</option>
	            <option value="3">3</option>
	            <option value="4">4</option>
	            <option value="5">5</option>
	            <option value="6">6</option>
	            <option value="7">7</option>
	            <option value="8">8</option>
	            <option value="9">9</option>
	            <option value="10">10 best</option>
	        </select>
	    </div>
		<span id="audioRating" class="torrentRating">9<span>/10</span></span>
	<!-- /div>
	<div class="qrateContainer" -->
	    <div class="qrate">
	        <span>video </span>
	        <select name="video_rate" id="video_rate">
	            <option value="" class="vote">vote </option>
	            <option value="1">1 awful</option>
	            <option value="2">2</option>
	            <option value="3">3</option>
	            <option value="4">4</option>
	            <option value="5">5</option>
	            <option value="6">6</option>
	            <option value="7">7</option>
	            <option value="8">8</option>
	            <option value="9">9</option>
	            <option value="10">10 best</option>
	        </select>
	    </div>
		<span id="videoRating" class="torrentRating">8<span>/10</span></span>
</div><!-- div class="qrateContainer" -->

            <div class="textareaRecommendation font11px">please, leave only comments related to that torrent</div>
    <div class="captchaformjs" style="display:none;clear:left;">
    <table>
    <tr>
        <td>
            <img class="lazyjs captcha" src="//kastatic.com/images/blank.gif" data-original="/captcha/show/?7360" alt="CAPTCHA" title="Click to reload" style="width: 140px; height: 47px; cursor: pointer;" />
<br/>
            <a class="textButton itop icon16 captchareload"><span></span>Not seeing the captcha?</a>
        </td>
        <td>
            <label for="captcha">Captcha <span class="asterisk">*</span>:</label>
            <input id="captcha" type="text" name="captcha" required="required" />
        </td>
    </tr>
</table>

    </div>
    <div class="objectAttachmentsJs overauto botmarg5px" style="clear: both;"></div>
    <div class="buttonsline">
                    <button type="submit" class="siteButton bigButton"><span>Post as a guest</span></button>
            <span class="buttonGoupText"> or <a class="ajaxLink" href="/auth/login/">sign-in</a></span>
            </div>
</form>
</div>
</div>
		<div id="comments"><div class="commentThread">
	    <div class="commentbody" id="comment18276541">
        <div id="cpic_18276541" class="userPic">
            <div class="height50px userPicHeight relative">
                            <a  href="/user/kingkhanking/">
                    <img class="lazyjs" data-original="//kastatic.com/images/commentlogo.png" src="//kastatic.com/images/blank.gif">
                </a>
            </div>
        </div>
        <div class="commentcontent">
            <a name="comment_18276541"></a>
            <div class="commentowner">
                <div class="rate rated" id="ratediv_18276541">
            <a href="/auth/login/" class="icon16 iminus redButton ajaxLink"><span></span></a> 
    	<a href="/auth/login/" class="icon16 iplus ajaxLink"><span></span></a>
        <a  title="Votes for this comment" class=" ratemark " id="commrate_18276541">0</a>
</div><!-- div class="rate"-->

                <div class="commentTopControlLine">
                                                                                                    </div>
                <div class="commentownerLeft">
                <span class="badgeInline"><span class="offline" title="offline"></span> <span class="aclColor_1"><a class="plain" href="/user/kingkhanking/">kingkhanking</a></span><span title="Reputation" class="repValue positive">10</span></span>
                                 <span id="cdate_18276541" class="lightgrey font11px">
                   &bull; 22 March 2014, 04:45                 </span>
                                                <a class="siteButton smallButton reject showComment" id="cshow_18276541" href="javascript:showComment(18276541)"><span>Show comment</span></a>
                </div><!-- div class="commentownerLeft" -->
            </div><!--commentowner-->
    <div class="commentAVRate bold font11px">
        <span>audio: 10</span><span>video: 10</span>    </div>
            <div id="ctext_18276541" class="commentText botmarg5px topmarg5px">
i seeded good movi beter print i liket 
    <div class="objectAttachmentsJs overauto topmarg10px">
                                
        
            </div>

</div>
            <div id="rep_link18276541" class="replyLink">
            <a class="siteButton smallButton" href="javascript: showReply('18276541');"><span>reply</span></a>
        </div>
        <div style="display:none" id="close_link18276541"><a class="siteButton smallButton" href="javascript: Hide('rep18276541');Show('rep_link18276541');Hide('close_link18276541')"><span>close</span></a></div>
        <div class="commentform" id="rep18276541" style="display:none;"></div>
            </div><!-- div class="commentcontent" -->
    </div><!-- div class="commentbody" --> 

		</div><!-- div class="commentThread" -->
<div class="commentThread">
	    <div class="commentbody" id="comment17885201">
        <div id="cpic_17885201" class="userPic">
            <div class="height50px userPicHeight relative">
                            <a  href="/user/Muzaddad_olee/">
                    <img class="lazyjs" data-original="//yuq.me/userpics/23/758/cd73f4a4c02a4708876489901acf7348.png" src="//kastatic.com/images/blank.gif">
                </a>
            </div>
        </div>
        <div class="commentcontent">
            <a name="comment_17885201"></a>
            <div class="commentowner">
                <div class="rate rated" id="ratediv_17885201">
            <a href="/auth/login/" class="icon16 iminus redButton ajaxLink"><span></span></a> 
    	<a href="/auth/login/" class="icon16 iplus ajaxLink"><span></span></a>
        <a  title="Votes for this comment" class=" ratemark " id="commrate_17885201">0</a>
</div><!-- div class="rate"-->

                <div class="commentTopControlLine">
                                                                                                    </div>
                <div class="commentownerLeft">
                <span class="badgeInline"><span class="offline" title="offline"></span> <span class="aclColor_1"><a class="plain" href="/user/Muzaddad_olee/">Muzaddad_olee</a></span><span title="Reputation" class="repValue positive">2745</span></span>
                                 <span id="cdate_17885201" class="lightgrey font11px">
                   &bull; 19 February 2014, 09:15                 </span>
                                <div class="downloadedArrow"><img src="//kastatic.com/images/torrentDownloaded.gif" alt="torrent downloaded" title="has downloaded this torrent" /></div>                <a class="siteButton smallButton reject showComment" id="cshow_17885201" href="javascript:showComment(17885201)"><span>Show comment</span></a>
                </div><!-- div class="commentownerLeft" -->
            </div><!--commentowner-->
            <div id="ctext_17885201" class="commentText botmarg5px topmarg5px">
Great Share I hope I like this movie .... <img class="emoticon" src="//kastatic.com/images/smiley/smile.gif" alt="smile" /><img class="emoticon" src="//kastatic.com/images/smiley/smile.gif" alt="smile" /><img class="emoticon" src="//kastatic.com/images/smiley/smile.gif" alt="smile" /><img class="emoticon" src="//kastatic.com/images/smiley/smile.gif" alt="smile" />[:Qsmile thanks again 
    <div class="objectAttachmentsJs overauto topmarg10px">
                                
        
            </div>

</div>
            <div id="rep_link17885201" class="replyLink">
            <a class="siteButton smallButton" href="javascript: showReply('17885201');"><span>reply</span></a>
        </div>
        <div style="display:none" id="close_link17885201"><a class="siteButton smallButton" href="javascript: Hide('rep17885201');Show('rep_link17885201');Hide('close_link17885201')"><span>close</span></a></div>
        <div class="commentform" id="rep17885201" style="display:none;"></div>
            </div><!-- div class="commentcontent" -->
    </div><!-- div class="commentbody" --> 

		</div><!-- div class="commentThread" -->
<div class="commentThread">
	    <div class="commentbody" id="comment15938535">
        <div id="cpic_15938535" class="userPic">
            <div class="height50px userPicHeight relative">
                            <a  href="/user/alviz/">
                    <img class="lazyjs" data-original="//yuq.me/userpics/16/227/054f0da7ba6825763cea2c073b31863f.gif" src="//kastatic.com/images/blank.gif">
                </a>
            </div>
        </div>
        <div class="commentcontent">
            <a name="comment_15938535"></a>
            <div class="commentowner">
                <div class="rate rated" id="ratediv_15938535">
            <a href="/auth/login/" class="icon16 iminus redButton ajaxLink"><span></span></a> 
    	<a href="/auth/login/" class="icon16 iplus ajaxLink"><span></span></a>
        <a  title="Votes for this comment" class=" ratemark " id="commrate_15938535">0</a>
</div><!-- div class="rate"-->

                <div class="commentTopControlLine">
                                                                                                    </div>
                <div class="commentownerLeft">
                <span class="badgeInline"><span class="offline" title="offline"></span> <span class="aclColor_1"><a class="plain" href="/user/alviz/">alviz</a></span><span title="Reputation" class="repValue positive">1634</span></span>
                                 <span id="cdate_15938535" class="lightgrey font11px">
                   &bull; 16 September 2013, 11:59                 </span>
                                <div class="downloadedArrow"><img src="//kastatic.com/images/torrentDownloaded.gif" alt="torrent downloaded" title="has downloaded this torrent" /></div>                <a class="siteButton smallButton reject showComment" id="cshow_15938535" href="javascript:showComment(15938535)"><span>Show comment</span></a>
                </div><!-- div class="commentownerLeft" -->
            </div><!--commentowner-->
    <div class="commentAVRate bold font11px">
        <span>audio: 9</span><span>video: 9</span>    </div>
            <div id="ctext_15938535" class="commentText botmarg5px topmarg5px">
Good... 
    <div class="objectAttachmentsJs overauto topmarg10px">
                                
        
            </div>

</div>
            <div id="rep_link15938535" class="replyLink">
            <a class="siteButton smallButton" href="javascript: showReply('15938535');"><span>reply</span></a>
        </div>
        <div style="display:none" id="close_link15938535"><a class="siteButton smallButton" href="javascript: Hide('rep15938535');Show('rep_link15938535');Hide('close_link15938535')"><span>close</span></a></div>
        <div class="commentform" id="rep15938535" style="display:none;"></div>
            </div><!-- div class="commentcontent" -->
    </div><!-- div class="commentbody" --> 

		</div><!-- div class="commentThread" -->
<div class="commentThread">
	    <div class="commentbody" id="comment13478752">
        <div id="cpic_13478752" class="userPic">
            <div class="height50px userPicHeight relative">
                            <a  href="/user/madmax007/">
                    <img class="lazyjs" data-original="//yuq.me/userpics/21/268/bb632b5cc63d6a9c391515be3094e96e.png" src="//kastatic.com/images/blank.gif">
                </a>
            </div>
        </div>
        <div class="commentcontent">
            <a name="comment_13478752"></a>
            <div class="commentowner">
                <div class="rate rated" id="ratediv_13478752">
            <a href="/auth/login/" class="icon16 iminus redButton ajaxLink"><span></span></a> 
    	<a href="/auth/login/" class="icon16 iplus ajaxLink"><span></span></a>
        <a  title="Votes for this comment" class=" ratemark " id="commrate_13478752">0</a>
</div><!-- div class="rate"-->

                <div class="commentTopControlLine">
                                                                                                    </div>
                <div class="commentownerLeft">
                <span class="badgeInline"><span class="offline" title="offline"></span> <span class="aclColor_1"><a class="plain" href="/user/madmax007/">madmax007</a></span><span title="Reputation" class="repValue positive">1309</span></span>
                                 <span id="cdate_13478752" class="lightgrey font11px">
                   &bull; 20 February 2013, 17:16                 </span>
                                <div class="downloadedArrow"><img src="//kastatic.com/images/torrentDownloaded.gif" alt="torrent downloaded" title="has downloaded this torrent" /></div>                <a class="siteButton smallButton reject showComment" id="cshow_13478752" href="javascript:showComment(13478752)"><span>Show comment</span></a>
                </div><!-- div class="commentownerLeft" -->
            </div><!--commentowner-->
    <div class="commentAVRate bold font11px">
        <span>audio: 8</span><span>video: 9</span>    </div>
            <div id="ctext_13478752" class="commentText botmarg5px topmarg5px">
Thanx!!! 
    <div class="objectAttachmentsJs overauto topmarg10px">
                                
        
            </div>

</div>
            <div id="rep_link13478752" class="replyLink">
            <a class="siteButton smallButton" href="javascript: showReply('13478752');"><span>reply</span></a>
        </div>
        <div style="display:none" id="close_link13478752"><a class="siteButton smallButton" href="javascript: Hide('rep13478752');Show('rep_link13478752');Hide('close_link13478752')"><span>close</span></a></div>
        <div class="commentform" id="rep13478752" style="display:none;"></div>
            </div><!-- div class="commentcontent" -->
    </div><!-- div class="commentbody" --> 

		</div><!-- div class="commentThread" -->
<div class="commentThread">
	    <div class="commentbody" id="comment11017765">
        <div id="cpic_11017765" class="userPic">
            <div class="height50px userPicHeight relative">
                            <a >
                    <img src="//kastatic.com/images/commentlogo.png">
                </a>
            </div>
        </div>
        <div class="commentcontent">
            <a name="comment_11017765"></a>
            <div class="commentowner">
                <div class="rate rated" id="ratediv_11017765">
        <a  title="Votes for this comment" class=" ratemark " id="commrate_11017765">0</a>
</div><!-- div class="rate"-->

                <div class="commentTopControlLine">
                                                                                                    </div>
                <div class="commentownerLeft">
                anonymous
                                 <span id="cdate_11017765" class="lightgrey font11px">
                   &bull; 16 August 2012, 08:23                 </span>
                                                <a class="siteButton smallButton reject showComment" id="cshow_11017765" href="javascript:showComment(11017765)"><span>Show comment</span></a>
                </div><!-- div class="commentownerLeft" -->
            </div><!--commentowner-->
            <div id="ctext_11017765" class="commentText botmarg5px topmarg5px">
need seed T.T 
    <div class="objectAttachmentsJs overauto topmarg10px">
                                
        
            </div>

</div>
            <div id="rep_link11017765" class="replyLink">
            <a class="siteButton smallButton" href="javascript: showReply('11017765');"><span>reply</span></a>
        </div>
        <div style="display:none" id="close_link11017765"><a class="siteButton smallButton" href="javascript: Hide('rep11017765');Show('rep_link11017765');Hide('close_link11017765')"><span>close</span></a></div>
        <div class="commentform" id="rep11017765" style="display:none;"></div>
            </div><!-- div class="commentcontent" -->
    </div><!-- div class="commentbody" --> 

		</div><!-- div class="commentThread" -->
<div class="commentThread">
	    <div class="commentbody" id="comment10374142">
        <div id="cpic_10374142" class="userPic">
            <div class="height50px userPicHeight relative">
                            <a  href="/user/vinay1878/">
                    <img class="lazyjs" data-original="//yuq.me/userpics/13/399/19db2c1de7f5cf61d9ed93d6a631d7e1.gif" src="//kastatic.com/images/blank.gif">
                </a>
            </div>
        </div>
        <div class="commentcontent">
            <a name="comment_10374142"></a>
            <div class="commentowner">
                <div class="rate rated" id="ratediv_10374142">
            <a href="/auth/login/" class="icon16 iminus redButton ajaxLink"><span></span></a> 
    	<a href="/auth/login/" class="icon16 iplus ajaxLink"><span></span></a>
        <a  title="Votes for this comment" class=" ratemark " id="commrate_10374142">0</a>
</div><!-- div class="rate"-->

                <div class="commentTopControlLine">
                                                                                                    </div>
                <div class="commentownerLeft">
                <span class="badgeInline"><span class="offline" title="offline"></span> <span class="aclColor_1"><a class="plain" href="/user/vinay1878/">vinay1878</a></span><span title="Reputation" class="repValue positive">1089</span></span>
                                 <span id="cdate_10374142" class="lightgrey font11px">
                   &bull; 15 June 2012, 09:53                 </span>
                                <div class="downloadedArrow"><img src="//kastatic.com/images/torrentDownloaded.gif" alt="torrent downloaded" title="has downloaded this torrent" /></div>                <a class="siteButton smallButton reject showComment" id="cshow_10374142" href="javascript:showComment(10374142)"><span>Show comment</span></a>
                </div><!-- div class="commentownerLeft" -->
            </div><!--commentowner-->
    <div class="commentAVRate bold font11px">
        <span>audio: 8</span><span>video: 7</span>    </div>
            <div id="ctext_10374142" class="commentText botmarg5px topmarg5px">
thanks. 
    <div class="objectAttachmentsJs overauto topmarg10px">
                                
        
            </div>

</div>
            <div id="rep_link10374142" class="replyLink">
            <a class="siteButton smallButton" href="javascript: showReply('10374142');"><span>reply</span></a>
        </div>
        <div style="display:none" id="close_link10374142"><a class="siteButton smallButton" href="javascript: Hide('rep10374142');Show('rep_link10374142');Hide('close_link10374142')"><span>close</span></a></div>
        <div class="commentform" id="rep10374142" style="display:none;"></div>
            </div><!-- div class="commentcontent" -->
    </div><!-- div class="commentbody" --> 

		</div><!-- div class="commentThread" -->
<div class="commentThread">
	    <div class="commentbody" id="comment10073363">
        <div id="cpic_10073363" class="userPic">
            <div class="height50px userPicHeight relative">
                            <a  href="/user/dchhag/">
                    <img class="lazyjs" data-original="//kastatic.com/images/commentlogo.png" src="//kastatic.com/images/blank.gif">
                </a>
            </div>
        </div>
        <div class="commentcontent">
            <a name="comment_10073363"></a>
            <div class="commentowner">
                <div class="rate rated" id="ratediv_10073363">
            <a href="/auth/login/" class="icon16 iminus redButton ajaxLink"><span></span></a> 
    	<a href="/auth/login/" class="icon16 iplus ajaxLink"><span></span></a>
        <a  title="Votes for this comment" class=" ratemark " id="commrate_10073363">0</a>
</div><!-- div class="rate"-->

                <div class="commentTopControlLine">
                                                                                                    </div>
                <div class="commentownerLeft">
                <span class="badgeInline"><span class="offline" title="offline"></span> <span class="aclColor_1"><a class="plain" href="/user/dchhag/">dchhag</a></span><span title="Reputation" class="repValue positive">105</span></span>
                                 <span id="cdate_10073363" class="lightgrey font11px">
                   &bull; 16 May 2012, 17:58                 </span>
                                <div class="downloadedArrow"><img src="//kastatic.com/images/torrentDownloaded.gif" alt="torrent downloaded" title="has downloaded this torrent" /></div>                <a class="siteButton smallButton reject showComment" id="cshow_10073363" href="javascript:showComment(10073363)"><span>Show comment</span></a>
                </div><!-- div class="commentownerLeft" -->
            </div><!--commentowner-->
    <div class="commentAVRate bold font11px">
        <span>audio: 10</span><span>video: 10</span>    </div>
            <div id="ctext_10073363" class="commentText botmarg5px topmarg5px">
Thanks 
    <div class="objectAttachmentsJs overauto topmarg10px">
                                
        
            </div>

</div>
            <div id="rep_link10073363" class="replyLink">
            <a class="siteButton smallButton" href="javascript: showReply('10073363');"><span>reply</span></a>
        </div>
        <div style="display:none" id="close_link10073363"><a class="siteButton smallButton" href="javascript: Hide('rep10073363');Show('rep_link10073363');Hide('close_link10073363')"><span>close</span></a></div>
        <div class="commentform" id="rep10073363" style="display:none;"></div>
            </div><!-- div class="commentcontent" -->
    </div><!-- div class="commentbody" --> 

		</div><!-- div class="commentThread" -->
<div class="commentThread">
	    <div class="commentbody" id="comment9604033">
        <div id="cpic_9604033" class="userPic">
            <div class="height50px userPicHeight relative">
                            <a  href="/user/Shah_Jahan/">
                    <img class="lazyjs" data-original="//kastatic.com/images/commentlogo.png" src="//kastatic.com/images/blank.gif">
                </a>
            </div>
        </div>
        <div class="commentcontent">
            <a name="comment_9604033"></a>
            <div class="commentowner">
                <div class="rate rated" id="ratediv_9604033">
            <a href="/auth/login/" class="icon16 iminus redButton ajaxLink"><span></span></a> 
    	<a href="/auth/login/" class="icon16 iplus ajaxLink"><span></span></a>
        <a  title="Votes for this comment" class=" ratemark " id="commrate_9604033">0</a>
</div><!-- div class="rate"-->

                <div class="commentTopControlLine">
                                                                                                    </div>
                <div class="commentownerLeft">
                <span class="badgeInline"><span class="offline" title="offline"></span> <span class="aclColor_1"><a class="plain" href="/user/Shah_Jahan/">Shah_Jahan</a></span><span title="Reputation" class="repValue positive">13</span></span>
                                 <span id="cdate_9604033" class="lightgrey font11px">
                   &bull; 28 March 2012, 18:24                 </span>
                                <div class="downloadedArrow"><img src="//kastatic.com/images/torrentDownloaded.gif" alt="torrent downloaded" title="has downloaded this torrent" /></div>                <a class="siteButton smallButton reject showComment" id="cshow_9604033" href="javascript:showComment(9604033)"><span>Show comment</span></a>
                </div><!-- div class="commentownerLeft" -->
            </div><!--commentowner-->
    <div class="commentAVRate bold font11px">
        <span>audio: 7</span><span>video: 6</span>    </div>
            <div id="ctext_9604033" class="commentText botmarg5px topmarg5px">
For a size of 893 MB the quality and color of the print was not too good.<br />
V=6/10<br />
A=7/10<br />
Here's some more info on the rip in case you need it,<br />
General<br />
Complete name : D:Ishq (1997) DvDRip x264 E Subs - AxN - Team DhRzIshq (1997) DvDRip x264 E Subs - AxN - Team DhRz.mp4<br />
Format : MPEG-4<br />
Format profile : Base Media<br />
Codec ID : isom<br />
File size : 893 MiB<br />
Duration : 2h 49mn<br />
Overall bit rate mode : Variable<br />
Overall bit rate : 737 Kbps<br />
Encoded date : UTC 2010-12-12 02:27:21<br />
Tagged date : UTC 2010-12-12 02:27:21<br />
Video<br />
ID : 1<br />
Format : AVC<br />
Format/Info : Advanced Video Codec<br />
Format profile : High@L2.1<br />
Format settings, CABAC : Yes<br />
Format settings, ReFrames : 4 frames<br />
Codec ID : avc1<br />
Codec ID/Info : Advanced Video Coding<br />
Duration : 2h 49mn<br />
Bit rate : 638 Kbps<br />
Maximum bit rate : 2 797 Kbps<br />
Width : 640 pixels<br />
Height : 304 pixels<br />
Display aspect ratio : 2.2:1<br />
Frame rate mode : Constant<br />
Frame rate : 23.976 fps<br />
Color space : YUV<br />
Chroma subsampling : 4:2:0<br />
Bit depth : 8 bits<br />
Scan type : Progressive<br />
Bits/(Pixel*Frame) : 0.137<br />
Stream size : 773 MiB (87%)<br />
Title : Imported with GPAC 0.4.6-DEV (internal rev. 5)<br />
Writing library : x264 core 98 r1649 c54c47d<br />
Encoding settings : cabac=1 / ref=3 / deblock=1:0:0 / analyse=0x3:0x113 / me=hex / subme=7 / psy=1 / psy_rd=1.00:0.00 / mixed_ref=1 / me_range=16 / chroma_me=1 / trellis=1 / 8x8dct=1 / cqm=0 / deadzone=21,11 / fast_pskip=1 / chroma_qp_offset=-2 / threads=3 / sliced_threads=0 / nr=0 / decimate=1 / interlaced=0 / constrained_intra=0 / bframes=3 / b_pyramid=2 / b_adapt=1 / b_bias=0 / direct=1 / weightb=1 / weightp=2 / keyint=250 / keyint_min=25 / scenecut=40 / intra_refresh=0 / rc_lookahead=40 / rc=2pass / mbtree=1 / bitrate=638 / ratetol=1.0 / qcomp=0.60 / qpmin=10 / qpmax=51 / qpstep=4 / cplxblur=20.0 / qblur=0.5 / ip_ratio=1.40 / aq=1:1.00<br />
Encoded date : UTC 2010-12-12 02:27:21<br />
Tagged date : UTC 2010-12-12 02:28:47<br />
Audio<br />
ID : 2<br />
Format : AAC<br />
Format/Info : Advanced Audio Codec<br />
Format profile : HE-AAC / LC<br />
Codec ID : 40<br />
Duration : 2h 49mn<br />
Bit rate mode : Variable<br />
Bit rate : 96.0 Kbps<br />
Maximum bit rate : 109 Kbps<br />
Channel(s) : 6 channels<br />
Channel positions : Front: L C R, Side: L R, LFE<br />
Sampling rate : 48.0 KHz / 24.0 KHz<br />
Compression mode : Lossy<br />
Stream size : 116 MiB (13%)<br />
Encoded date : UTC 2010-12-12 02:28:37<br />
Tagged date : UTC 2010-12-12 02:28:47 
    <div class="objectAttachmentsJs overauto topmarg10px">
                                
        
            </div>

</div>
            <div id="rep_link9604033" class="replyLink">
            <a class="siteButton smallButton" href="javascript: showReply('9604033');"><span>reply</span></a>
        </div>
        <div style="display:none" id="close_link9604033"><a class="siteButton smallButton" href="javascript: Hide('rep9604033');Show('rep_link9604033');Hide('close_link9604033')"><span>close</span></a></div>
        <div class="commentform" id="rep9604033" style="display:none;"></div>
            </div><!-- div class="commentcontent" -->
    </div><!-- div class="commentbody" --> 

						<div class="commentThread">
	<div class="reply">    <div class="commentbody" id="comment10654103">
        <div id="cpic_10654103" class="userPic">
            <div class="height50px userPicHeight relative">
                            <a >
                    <img src="//kastatic.com/images/commentlogo.png">
                </a>
            </div>
        </div>
        <div class="commentcontent">
            <a name="comment_10654103"></a>
            <div class="commentowner">
                <div class="rate rated" id="ratediv_10654103">
        <a  title="Votes for this comment" class=" ratemark " id="commrate_10654103">0</a>
</div><!-- div class="rate"-->

                <div class="commentTopControlLine">
                                                                                                    </div>
                <div class="commentownerLeft">
                anonymous
                                 <span id="cdate_10654103" class="lightgrey font11px">
                   &bull; 14 July 2012, 07:20                 </span>
                                                <a class="siteButton smallButton reject showComment" id="cshow_10654103" href="javascript:showComment(10654103)"><span>Show comment</span></a>
                </div><!-- div class="commentownerLeft" -->
            </div><!--commentowner-->
            <div id="ctext_10654103" class="commentText botmarg5px topmarg5px">
thanks... 
    <div class="objectAttachmentsJs overauto topmarg10px">
                                
        
            </div>

</div>
            <div id="rep_link10654103" class="replyLink">
            <a class="siteButton smallButton" href="javascript: showReply('10654103');"><span>reply</span></a>
        </div>
        <div style="display:none" id="close_link10654103"><a class="siteButton smallButton" href="javascript: Hide('rep10654103');Show('rep_link10654103');Hide('close_link10654103')"><span>close</span></a></div>
        <div class="commentform" id="rep10654103" style="display:none;"></div>
            </div><!-- div class="commentcontent" -->
    </div><!-- div class="commentbody" --> 
</div>
		</div><!-- div class="commentThread" -->

			</div><!-- div class="commentThread" -->
<div class="commentThread">
	    <div class="commentbody" id="comment9292063">
        <div id="cpic_9292063" class="userPic">
            <div class="height50px userPicHeight relative">
                            <a  href="/user/salamru/">
                    <img class="lazyjs" data-original="//yuq.me/userpics/15/335/76c9b09fe486fe89fcd95f2adbeef46a.gif" src="//kastatic.com/images/blank.gif">
                </a>
            </div>
        </div>
        <div class="commentcontent">
            <a name="comment_9292063"></a>
            <div class="commentowner">
                <div class="rate rated" id="ratediv_9292063">
            <a href="/auth/login/" class="icon16 iminus redButton ajaxLink"><span></span></a> 
    	<a href="/auth/login/" class="icon16 iplus ajaxLink"><span></span></a>
        <a  title="Votes for this comment" class=" ratemark " id="commrate_9292063">0</a>
</div><!-- div class="rate"-->

                <div class="commentTopControlLine">
                                                                                                    </div>
                <div class="commentownerLeft">
                <span class="badgeInline"><span class="offline" title="offline"></span> <span class="aclColor_1"><a class="plain" href="/user/salamru/">salamru</a></span><span title="Reputation" class="repValue positive">737</span></span>
                                 <span id="cdate_9292063" class="lightgrey font11px">
                   &bull; 19 February 2012, 17:05                 </span>
                                <div class="downloadedArrow"><img src="//kastatic.com/images/torrentDownloaded.gif" alt="torrent downloaded" title="has downloaded this torrent" /></div>                <a class="siteButton smallButton reject showComment" id="cshow_9292063" href="javascript:showComment(9292063)"><span>Show comment</span></a>
                </div><!-- div class="commentownerLeft" -->
            </div><!--commentowner-->
    <div class="commentAVRate bold font11px">
        <span>audio: 9</span><span>video: 9</span>    </div>
            <div id="ctext_9292063" class="commentText botmarg5px topmarg5px">
 
    <div class="objectAttachmentsJs overauto topmarg10px">
                                
        
            </div>

</div>
            <div id="rep_link9292063" class="replyLink">
            <a class="siteButton smallButton" href="javascript: showReply('9292063');"><span>reply</span></a>
        </div>
        <div style="display:none" id="close_link9292063"><a class="siteButton smallButton" href="javascript: Hide('rep9292063');Show('rep_link9292063');Hide('close_link9292063')"><span>close</span></a></div>
        <div class="commentform" id="rep9292063" style="display:none;"></div>
            </div><!-- div class="commentcontent" -->
    </div><!-- div class="commentbody" --> 

		</div><!-- div class="commentThread" -->

	<a href="javascript: getPage(2, '4815532', 'torrent')" class="showmore folded" id="showmore_2"><span class="font80perc">&#x25BC;</span> Show More</a>
	<div id="morecomments_2" style="display:none;"></div>
<form id="comment_form" action="/comments/create/torrent/" method="post" onsubmit="return addComment(this, 'torrent');" style="display:none">
    <input type="hidden" name="pid" value="">
    <input type="hidden" name="turing"/>
    <input type="hidden" name="objectId" value="4815532"/>
    <textarea class="botmarg5px comareajs quicksubmit" name="content" rows="10" cols="10" autofocus required></textarea>
            <div class="captchaformjs" style="display:none">
        <table>
    <tr>
        <td>
            <img class="lazyjs captcha" src="//kastatic.com/images/blank.gif" data-original="/captcha/show/?2914" alt="CAPTCHA" title="Click to reload" style="width: 140px; height: 47px; cursor: pointer;" />
<br/>
            <a class="textButton itop icon16 captchareload"><span></span>Not seeing the captcha?</a>
        </td>
        <td>
            <label for="captcha">Captcha <span class="asterisk">*</span>:</label>
            <input id="captcha" type="text" name="captcha" required="required" />
        </td>
    </tr>
</table>

        </div>
        <div class="objectAttachmentsJs overauto" style="clear: both;"></div>
    <div class="buttonsline">
        <button type="submit" class="siteButton bigButton" name="submit"><span>reply</span></button>
    </div>
</form></div>
	</div>
</div><!-- div class="commentsLeftModule" -->
<br />
	<h2>User Opinions</h2>
	<div class="userOpinionsContainer" id="useropinion">
	<span class="isthumbup statusIcon"></span>  <span class="blank"> </span> <span class="badgeInline"><span class="offline" title="offline"></span> <span class="aclColor_3"><a class="plain" href="/user/4.8.15.162342/">4.8.15.162342</a></span><span title="Reputation" class="repValue positive">7000</span></span>,  
	  <span class="blank"> </span> <span class="badgeInline"><span class="offline" title="offline"></span> <span class="aclColor_1"><a class="plain" href="/user/slaywee/">slaywee</a></span><span title="Reputation" class="repValue positive">5511</span></span>,  
	  <span class="blank"> </span> <span class="badgeInline"><span class="offline" title="offline"></span> <span class="aclColor_1"><a class="plain" href="/user/jai07/">jai07</a></span><span title="Reputation" class="repValue positive">1370</span></span>,  
	  <span class="blank"> </span> <span class="badgeInline"><span class="offline" title="offline"></span> <span class="aclColor_1"><a class="plain" href="/user/riisan/">riisan</a></span><span title="Reputation" class="repValue positive">988</span></span>,  
	  <span class="blank"> </span> <span class="badgeInline"><span class="offline" title="offline"></span> <span class="aclColor_1"><a class="plain" href="/user/sujanshetty/">sujanshetty</a></span><span title="Reputation" class="repValue positive">632</span></span>,  
	  <span class="blank"> </span> <span class="badgeInline"><span class="offline" title="offline"></span> <span class="aclColor_1"><a class="plain" href="/user/Roscolnikof/">Roscolnikof</a></span><span title="Reputation" class="repValue positive">413</span></span>,  
	  <span class="blank"> </span> <span class="badgeInline"><span class="offline" title="offline"></span> <span class="aclColor_1"><a class="plain" href="/user/preet001/">preet001</a></span><span title="Reputation" class="repValue positive">288</span></span>,  
	  <span class="blank"> </span> <span class="badgeInline"><span class="offline" title="offline"></span> <span class="aclColor_1"><a class="plain" href="/user/abmateen71/">abmateen71</a></span><span title="Reputation" class="repValue positive">107</span></span>,  
	  <span class="blank"> </span> <span class="badgeInline"><span class="offline" title="offline"></span> <span class="aclColor_1"><a class="plain" href="/user/mass55/">mass55</a></span><span title="Reputation" class="repValue positive">40</span></span>,  
	  <span class="blank"> </span> <span class="badgeInline"><span class="offline" title="offline"></span> <span class="aclColor_1"><a class="plain" href="/user/alikehk/">alikehk</a></span><span title="Reputation" class="repValue positive">20</span></span> 
		... And 46 more
	<br />
	<span class="isthumbdown statusIcon valignMiddle"></span> <span class="blank"> </span> <span class="badgeInline"><span class="offline" title="offline"></span> <span class="aclColor_1"><a class="plain" href="/user/Denver2496/">Denver2496</a></span><span title="Reputation" class="repValue positive">187</span></span> 
	</div>


									</div>
			</div><!-- div class="tabs" -->
		</td>
		<td class="sidebarCell">
		    <div id="sidebar" >
        <div id="_119b0a17fab5493361a252d04bf527db"></div>
    <script type="text/javascript">
    var _scq = _scq || [];
    _scq.push(['addSlot', '_119b0a17fab5493361a252d04bf527db', {
        pagetype: 'torrent'
    }]);
    </script>



                
    	    <div class="advertising">
    <div class="legend">Advertising (<a href="/auth/login/" class="ajaxLink removeAdv" title="Login or register to remove advertising">remove</a>)</div>
        <div id="_7063408f1c01d50e0dc2d833186ce962"></div>
</div>

    
        <div class="sliderbox">
<h3>Latest Forum Threads</h3>
<ul>
		<li><a href="/community/show/eager-start-seeding-my-own-torrents-anything-i-should-know-a/"><span class="icomment icon16"><span></span></span>eager to start seeding my own torrents.. anything I should know about metadata before I start?</a><span class="explanation">by <span class="badgeInline"><span class="online" title="online"></span> <span class="aclColor_1"><a class="plain" href="/user/BlatantPirate/">BlatantPirate</a></span></span> 10&nbsp;sec.&nbsp;ago</span></li>
		<li><a href="/community/show/please-request-ebooks-and-audio-books-here-v6-thread-78445/?unread=15467337"><span class="icomment icon16"><span></span></span>Please request ebooks and audio books here. V6</a><span class="explanation">by <span class="badgeInline"><span class="online" title="online"></span> <span class="aclColor_1"><a class="plain" href="/user/jg-master/">jg-master</a></span></span> 12&nbsp;sec.&nbsp;ago</span></li>
		<li><a href="/community/show/tzzo-exe/?unread=15467336"><span class="icomment icon16"><span></span></span>tzzo.exe</a><span class="explanation">by <span class="badgeInline"><span class="offline" title="offline"></span> <span class="aclColor_4"><a class="plain" href="/user/Tarzan/">Tarzan</a></span></span> 42&nbsp;sec.&nbsp;ago</span></li>
		<li><a href="/community/show/underrated-movies-thread-82165/?unread=15467335"><span class="icomment icon16"><span></span></span>Underrated Movies</a><span class="explanation">by <span class="badgeInline"><span class="online" title="online"></span> <span class="aclColor_1"><a class="plain" href="/user/northernrock/">northernrock</a></span></span> 1&nbsp;min.&nbsp;ago</span></li>
		<li><a href="/community/show/need-help-laptop-upgrade/?unread=15467333"><span class="icomment icon16"><span></span></span>Need help with laptop upgrade</a><span class="explanation">by <span class="badgeInline"><span class="offline" title="offline"></span> <span class="aclColor_2"><a class="plain" href="/user/tonowando/">tonowando</a></span></span> 2&nbsp;min.&nbsp;ago</span></li>
		<li><a href="/community/show/salem-discussion-thread/?unread=15467322"><span class="icomment icon16"><span></span></span>Salem - Discussion Thread</a><span class="explanation">by <span class="badgeInline"><span class="offline" title="offline"></span> <span class="aclColor_1"><a class="plain" href="/user/EvilDeadGuy/">EvilDeadGuy</a></span></span> 14&nbsp;min.&nbsp;ago</span></li>
	</ul>
</div><!-- div class="sliderbox" -->

    <div class="sliderbox">
<h3>Latest News</h3>
<ul>
	<li><a href="/blog/post/may-14-updates/"><span class="icomment icon16"><span></span></span>May&#039;14 Updates</a><span class="explanation">by KickassTorrents 1&nbsp;month&nbsp;ago</span></li>
	<li><a href="/blog/post/april-14-updates/"><span class="icomment icon16"><span></span></span>April&#039;14 Updates</a><span class="explanation">by KickassTorrents 3&nbsp;months&nbsp;ago</span></li>
	<li><a href="/blog/post/march-upd-1-uploader-rules-fix-and-torrents-day-2014/"><span class="icomment icon16"><span></span></span>March upd.1 - Uploader rules fix and Torrents Day 2014</a><span class="explanation">by KickassTorrents 3&nbsp;months&nbsp;ago</span></li>
</ul>
</div><!-- div class="sliderbox" -->
<div class="sliderbox">
<h3>Blogroll</h3>
<ul>
	<li><a href="/blog/VikTSlick/post/four-modes-connection-disillusionment-neglect-acceptance/"><span class="icomment icon16"><span></span></span>Four Modes: Connection, Disillusionment, Neglect, Acceptance</a><span class="explanation">by <a class="plain" href="/user/VikTSlick/">VikTSlick</a> 7&nbsp;hours&nbsp;ago</span></li>
	<li><a href="/blog/man2014now/post/question-number-289/"><span class="icomment icon16"><span></span></span>Question number (289)</a><span class="explanation">by <a class="plain" href="/user/man2014now/">man2014now</a> 11&nbsp;hours&nbsp;ago</span></li>
	<li><a href="/blog/aciire/post/how-to-do-mount-install-crack-tutorial/"><span class="icomment icon16"><span></span></span>How to do - Mount/Install/Crack | Tutorial</a><span class="explanation">by <a class="plain" href="/user/aciire/">aciire</a> yesterday</span></li>
	<li><a href="/blog/man2014now/post/question-number-288/"><span class="icomment icon16"><span></span></span>Question number (288)</a><span class="explanation">by <a class="plain" href="/user/man2014now/">man2014now</a> yesterday</span></li>
	<li><a href="/blog/HopenDarkness/post/never-meant-to-be-so-gross-question-103/"><span class="icomment icon16"><span></span></span>Never Meant To Be So Gross (Question #103)</a><span class="explanation">by <a class="plain" href="/user/HopenDarkness/">HopenDarkness</a> yesterday</span></li>
	<li><a href="/blog/LisaLeo/post/sex-education-haha/"><span class="icomment icon16"><span></span></span>sex education :) haha</a><span class="explanation">by <a class="plain" href="/user/LisaLeo/">LisaLeo</a> 2&nbsp;days&nbsp;ago</span></li>
</ul>
</div><!-- div class="sliderbox" -->

    <div class="sliderbox">
<h3>Goodies</h3>
<ul>

	<li>
		<a target="_blank" rel="external" href="http://addons.mozilla.org/en-US/firefox/addon/11412" target="_blank" rel="external">
			<span class="ifirefox thirdPartIcons"></span>Firefox search plugin
		</a>
	</li>
	<li>
		<a target="_blank" rel="external" href="/content/utorrent.btsearch">
			<span class="iutorrent thirdPartIcons"></span>uTorrent search template
		</a>
	</li>
	<li>
		<a target="_blank" rel="external" href="http://twitter.com/kickasstorrents">
			<span class="ifollow thirdPartIcons"></span>Follow us on Twitter
		</a>
	</li>
	<li>
		<a target="_blank" rel="external" href="/blog/post/30/">
			<span class="ikat thirdPartIcons"></span>Kickass wallpapers
		</a>
	</li>
	<li>
		<a target="_blank" rel="external" href="http://www.facebook.com/official.KAT.fanclub">
			<span class="ifacebook thirdPartIcons"></span>Like us on Facebook
		</a>
	</li>
	<li>
		<a target="_blank" rel="external nofollow" href="http://chat.efnet.org:9090/?channels=%23KAT.ph"><span class="iirc thirdPartIcons"></span>IRC official chat</a>
	</li>
</ul>
</div><!-- div class="sliderbox" -->
    <div class="sliderbox">
<h3>Latest Searches</h3>
<ul>
	<li>
		<a href="/search/she%20xin/"><span class="isearch icon16"><span></span></span>she xin</a>
				<span class="explanation">just&nbsp;now</span>
	</li>
	<li>
		<a href="/search/the%20vampire%20diaries%20s05e18/"><span class="isearch icon16"><span></span></span>The vampire diaries s05e18</a>
				<span class="explanation">just&nbsp;now</span>
	</li>
	<li>
		<a href="/search/avengers/"><span class="isearch icon16"><span></span></span>avengers</a>
				<span class="explanation">just&nbsp;now</span>
	</li>
	<li>
		<a href="/search/%5Bpsp%5Ddracula%20undead%20awakening/"><span class="isearch icon16"><span></span></span>[psp]dracula undead awakening</a>
				<span class="explanation">just&nbsp;now</span>
	</li>
	<li>
		<a href="/search/alexis%20adams%20%E2%80%93%20naughty%20bookworms/"><span class="isearch icon16"><span></span></span>Alexis Adams – Naughty Bookworms</a>
				<span class="explanation">just&nbsp;now</span>
	</li>
	<li>
		<a href="/search/diamond%20kitty%20trash%20ho/"><span class="isearch icon16"><span></span></span>diamond kitty trash ho</a>
				<span class="explanation">just&nbsp;now</span>
	</li>
	<li>
		<a href="/search/too%20much%20anal/"><span class="isearch icon16"><span></span></span>too much anal</a>
				<span class="explanation">just&nbsp;now</span>
	</li>
	<li>
		<a href="/search/1080p%20brrip%20yify/"><span class="isearch icon16"><span></span></span>1080p brrip yify</a>
				<span class="explanation">just&nbsp;now</span>
	</li>
	<li>
		<a href="/search/the%20goonies%201985%201080p/"><span class="isearch icon16"><span></span></span>The Goonies 1985 1080p</a>
				<span class="explanation">just&nbsp;now</span>
	</li>
	<li>
		<a href="/search/fs2004%20wilco%20crj/"><span class="isearch icon16"><span></span></span>fs2004 wilco crj</a>
				<span class="explanation">just&nbsp;now</span>
	</li>
	<li>
		<a href="/search/crazy%20drive/"><span class="isearch icon16"><span></span></span>crazy drive</a>
				<span class="explanation">just&nbsp;now</span>
	</li>
</ul>
</div><!-- div class="sliderbox" -->
        	<div class="sliderbox">
	<h3>Friends Links</h3>
	<ul>
		
		<li>
			<a href="http://torrents.to/" target="_blank" rel="external">
				<span class="itorrentsto thirdPartIcons"></span>Torrents.to
			</a>
		</li>
		<li>
			<a href="http://www.torrentdownloads.net/" target="_blank" rel="external">
				<span class="itorrentdownloads thirdPartIcons"></span>Torrent Downloads
			</a>
		</li>
		
		<li>
			<a href="http://www.torrentreactor.net/" target="_blank" rel="external">
				<span class="itorreact thirdPartIcons"></span>TorrentReactor
			</a>
		</li>
		

		<li>
			<a href="http://torrent-finder.info/" target="_blank" rel="external">
				<span class="itorrentfinder thirdPartIcons"></span>Torrent Finder
			</a>
		</li>
	</ul>
</div><!-- div class="sliderbox" -->
        
</div>
<a class="showSidebar" id="showsidebar" onclick="showSidebar();" style="display:none;"></a>

		</td>
	</tr>
</table>
 
</div>
<div id="translate_site" style="display:none">
    <h3>Select Your Language</h3>
    <div class="textcontent threecolls">
        <div class="firstColl">
            <ul>
                                
                        <li class="current_lang"><a onclick="setLanguage('en', '.kickass.to');return false;" class="plain"><strong>English</strong></a></li>
                                
                        <li><a onclick="setLanguage('af', '.kickass.to');return false;" class="plain">Afrikaans</a></li>
                                
                        <li><a onclick="setLanguage('eu', '.kickass.to');return false;" class="plain">Basque</a></li>
                                
                        <li><a onclick="setLanguage('bn', '.kickass.to');return false;" class="plain">Bengali</a></li>
                                
                        <li><a onclick="setLanguage('bs', '.kickass.to');return false;" class="plain">Bosnian</a></li>
                                
                        <li><a onclick="setLanguage('ch', '.kickass.to');return false;" class="plain">Chinese Simplified</a></li>
                                
                        <li><a onclick="setLanguage('hr', '.kickass.to');return false;" class="plain">Croatian</a></li>
                                
                        <li><a onclick="setLanguage('cz', '.kickass.to');return false;" class="plain">Czech</a></li>
                                
                        <li><a onclick="setLanguage('da', '.kickass.to');return false;" class="plain">Danish</a></li>
                                
                        <li><a onclick="setLanguage('nl', '.kickass.to');return false;" class="plain">Dutch</a></li>
                                
                        <li><a onclick="setLanguage('tl', '.kickass.to');return false;" class="plain">Filipino</a></li>
                                
                        <li><a onclick="setLanguage('fi', '.kickass.to');return false;" class="plain">Finnish</a></li>
                                
                    </ul>
        </div>
        <div class="secondColl">
            <ul>
                         <li><a onclick="setLanguage('fr', '.kickass.to');return false;" class="plain">French</a></li>
                                
                        <li><a onclick="setLanguage('ka', '.kickass.to');return false;" class="plain">Georgian</a></li>
                                
                        <li><a onclick="setLanguage('de', '.kickass.to');return false;" class="plain">German</a></li>
                                
                        <li><a onclick="setLanguage('el', '.kickass.to');return false;" class="plain">Greek</a></li>
                                
                        <li><a onclick="setLanguage('hi', '.kickass.to');return false;" class="plain">Hindi</a></li>
                                
                        <li><a onclick="setLanguage('hu', '.kickass.to');return false;" class="plain">Hungarian</a></li>
                                
                        <li><a onclick="setLanguage('id', '.kickass.to');return false;" class="plain">Indonesian</a></li>
                                
                        <li><a onclick="setLanguage('it', '.kickass.to');return false;" class="plain">Italian</a></li>
                                
                        <li><a onclick="setLanguage('lt', '.kickass.to');return false;" class="plain">Lithuanian</a></li>
                                
                        <li><a onclick="setLanguage('ms', '.kickass.to');return false;" class="plain">Malaysian</a></li>
                                
                        <li><a onclick="setLanguage('no', '.kickass.to');return false;" class="plain">Norwegian</a></li>
                                
                    </ul>
        </div>
        <div class="thirdColl">
            <ul>
                         <li><a onclick="setLanguage('pr', '.kickass.to');return false;" class="plain">Pirate</a></li>
                                
                        <li><a onclick="setLanguage('pl', '.kickass.to');return false;" class="plain">Polish</a></li>
                                
                        <li><a onclick="setLanguage('pt', '.kickass.to');return false;" class="plain">Portuguese</a></li>
                                
                        <li><a onclick="setLanguage('ro', '.kickass.to');return false;" class="plain">Romanian</a></li>
                                
                        <li><a onclick="setLanguage('ru', '.kickass.to');return false;" class="plain">Russian</a></li>
                                
                        <li><a onclick="setLanguage('sr', '.kickass.to');return false;" class="plain">Serbian</a></li>
                                
                        <li><a onclick="setLanguage('src', '.kickass.to');return false;" class="plain">Serbian-Cyrillic</a></li>
                                
                        <li><a onclick="setLanguage('sk', '.kickass.to');return false;" class="plain">Slovak</a></li>
                                
                        <li><a onclick="setLanguage('es', '.kickass.to');return false;" class="plain">Spanish</a></li>
                                
                        <li><a onclick="setLanguage('sv', '.kickass.to');return false;" class="plain">Swedish</a></li>
                                
                        <li><a onclick="setLanguage('te', '.kickass.to');return false;" class="plain">Telugu</a></li>
                                
                        <li><a onclick="setLanguage('tr', '.kickass.to');return false;" class="plain">Turkish</a></li>
                            </ul>
        </div>
    </div><!-- div class="textcontent" -->
</div>
</div><!--id="main"-->
</div><!--id="wrap"-->

<footer class="lightgrey">
	<ul>
		<li><a class="plain" href="#translate_site" id="translate_link"><strong>change language</strong></a></li>
		<li><a href="/rules/">rules</a></li>
        <li><a href="/ideabox/">idea box</a></li>
		<li class="lower"><a href="/achievements/">Achievements</a></li>
		<li><a href="/trends/">trends</a></li>
		<li class="lower"><a href="/latest-searches/">Latest Searches</a></li>
        <li><a href="/request/">torrent requests</a></li>        	</ul>
	<ul>
		<li><a href="/about/">about</a></li>
		<li><a href="/privacy/">privacy</a></li>
		<li><a href="/dmca/">dmca</a></li>
        		<li><a href="/logos/">logos</a></li>
				<li><a href="/contacts/">contacts</a></li>
        <li><a href="/api/">api</a></li>
		<li><a target="_blank" rel="external nofollow" href="http://chat.efnet.org:9090/?channels=%23KAT.ph">chat</a></li>
	</ul>
    <ul>
        <li>BitCoin: 19CWNopXCHSwWtWQ89NHC471LMn2Gy5j5G</li>
    </ul>
        
</footer>
<a class="feedbackButton eventsButtons" href="/issue/create/" id="feedback"><span>Report a bug</span></a>
            <div id="_673e31f53f8166159b8e996c4124765b"></div>
            <div id="_e7050fb15fd39b3e4e99a5be4a57b6ea"></div>
<script type="text/javascript">
_scq.push(['setHost', 'a.kickass.to']);
_scq.push(['setAccount', '_b894d6cb1e370fb9ad89f8d6d99eeb33']);
_scq.push(['addSlot', '_60318cd4e8d28f6fb76fe34e9bd9c498']);
_scq.push(['addSlot', '_39ecb76dd457e5ac33776fdf11500d56']);
_scq.push(['addSlot', '_74537daaf40605219cf5abec7e57e932', { 'tfile': 'http%3A%2F%2Ftorcache.net%2Ftorrent%2F7FDD33356E7CB52631FF02A04DC657E62799376A.torrent%3Ftitle%3D%5Bkickass.to%5Dishq.1997.dvdrip.x264.e.subs.axn.team.dhrz' }]);
_scq.push(['addSlot', '_ad4d917f2e764fab63b916b5e0655d2e', { 'tname': 'Ishq+%281997%29+DvDRip+x264+E+Subs+-+AxN+-+Team+DhRz', 'category': 'Movies' }]);
_scq.push(['addSlot', '_151f50b61bb9a7633562d3f308691182', { 'tname': 'Ishq+%281997%29+DvDRip+x264+E+Subs+-+AxN+-+Team+DhRz', 'category': 'Movies' }]);
_scq.push(['addSlot', '_7063408f1c01d50e0dc2d833186ce962', { 'category': 'Movies', 'searchQuery': '' }]);
_scq.push(['addSlot', '_673e31f53f8166159b8e996c4124765b']);
_scq.push(['addSlot', '_e7050fb15fd39b3e4e99a5be4a57b6ea']);
_scq.push(['load']);
(function() {
    var sc = document.createElement('script'); sc.type = 'text/javascript'; sc.async = true;
    sc.src = document.location.protocol + '//a.kickass.to/sc-e4d9fd3.js';
    var s = document.getElementsByTagName('script')[0]; s.parentNode.insertBefore(sc, s);
})();
</script>
<script type="text/javascript"><!-- 
document.write("<a style='display:none;' href='http://www.liveinternet.ru/click' "+ 
"target=_blank><img src='//counter.yadro.ru/hit?t45.6;r"+ 
escape(document.referrer)+((typeof(screen)=="undefined")?"": 
";s"+screen.width+"*"+screen.height+"*"+(screen.colorDepth? 
screen.colorDepth:screen.pixelDepth))+";u"+escape(document.URL)+ 
";h"+escape(document.title.substring(0,80))+";"+Math.random()+ 
"' alt='' title='LiveInternet' "+ 
"border='0' width='0' height='0'><\/a>") 
//--></script>
<script>
  (function(i,s,o,g,r,a,m) { i['GoogleAnalyticsObject']=r;i[r]=i[r]||function() {
  (i[r].q=i[r].q||[]).push(arguments)},i[r].l=1*new Date();a=s.createElement(o),
  m=s.getElementsByTagName(o)[0];a.async=1;a.src=g;m.parentNode.insertBefore(a,m)
  })(window,document,'script','//www.google-analytics.com/analytics.js','ga');

  ga('create', 'UA-41854124-1', 'kickass.to');
  ga('send', 'pageview');
</script>
</body>
</html>
